<?xml version="1.0" encoding="utf-8"?>
<!-- Generator: Adobe Illustrator 23.0.5, SVG Export Plug-In . SVG Version: 6.00 Build 0)  -->
<svg version="1.1" id="Layer_1" xmlns="http://www.w3.org/2000/svg" xmlns:xlink="http://www.w3.org/1999/xlink" x="0px" y="0px"
	 viewBox="0 0 600 450" style="enable-background:new 0 0 600 450;" xml:space="preserve">
<style type="text/css">
	.st0{fill:#C7B299;}
	.st1{fill:#333333;}
	.st2{fill:#F2F2F2;}
	.st3{fill:#FBB03B;}
	.st4{fill:#22B573;}
	.st5{fill:#FCEE21;}
	.st6{fill:#006837;}
	.st7{fill:#42210B;}
	.st8{font-family:'MyriadPro-Bold';}
	.st9{font-size:42.7237px;}
	.st10{fill:#534741;}
</style>
<rect y="1" class="st0" width="600" height="450"/>
<g>
	<path class="st1" d="M430,335H184c-6.6,0-12-5.4-12-12V160c0-6.6,5.4-12,12-12h246c6.6,0,12,5.4,12,12v163
		C442,329.6,436.6,335,430,335z"/>
</g>
<g>
	<path class="st2" d="M426.8,327H186.2c-3.4,0-6.2-2.8-6.2-6.2V162.2c0-3.4,2.8-6.2,6.2-6.2h240.6c3.4,0,6.2,2.8,6.2,6.2v158.6
		C433,324.2,430.2,327,426.8,327z"/>
</g>
<path class="st3" d="M328.5,180h-134c-3.6,0-6.5-2.9-6.5-6.5l0,0c0-3.6,2.9-6.5,6.5-6.5h134c3.6,0,6.5,2.9,6.5,6.5l0,0
	C335,177.1,332.1,180,328.5,180z"/>
<path class="st4" d="M279.5,201h-85c-3.6,0-6.5-2.9-6.5-6.5l0,0c0-3.6,2.9-6.5,6.5-6.5h85c3.6,0,6.5,2.9,6.5,6.5l0,0
	C286,198.1,283.1,201,279.5,201z"/>
<path class="st4" d="M419.5,201h-68c-3.6,0-6.5-2.9-6.5-6.5l0,0c0-3.6,2.9-6.5,6.5-6.5h68c3.6,0,6.5,2.9,6.5,6.5l0,0
	C426,198.1,423.1,201,419.5,201z"/>
<path class="st5" d="M279.5,221h-85c-3.6,0-6.5-2.9-6.5-6.5l0,0c0-3.6,2.9-6.5,6.5-6.5h85c3.6,0,6.5,2.9,6.5,6.5l0,0
	C286,218.1,283.1,221,279.5,221z"/>
<path class="st3" d="M341.5,241h-147c-3.6,0-6.5-2.9-6.5-6.5l0,0c0-3.6,2.9-6.5,6.5-6.5h147c3.6,0,6.5,2.9,6.5,6.5l0,0
	C348,238.1,345.1,241,341.5,241z"/>
<path class="st3" d="M419.5,241h-60c-3.6,0-6.5-2.9-6.5-6.5l0,0c0-3.6,2.9-6.5,6.5-6.5h60c3.6,0,6.5,2.9,6.5,6.5l0,0
	C426,238.1,423.1,241,419.5,241z"/>
<path class="st6" d="M309.5,261h-115c-3.6,0-6.5-2.9-6.5-6.5l0,0c0-3.6,2.9-6.5,6.5-6.5h115c3.6,0,6.5,2.9,6.5,6.5l0,0
	C316,258.1,313.1,261,309.5,261z"/>
<path class="st6" d="M419.5,261h-91c-3.6,0-6.5-2.9-6.5-6.5l0,0c0-3.6,2.9-6.5,6.5-6.5h91c3.6,0,6.5,2.9,6.5,6.5l0,0
	C426,258.1,423.1,261,419.5,261z"/>
<path class="st5" d="M364.5,281h-170c-3.6,0-6.5-2.9-6.5-6.5l0,0c0-3.6,2.9-6.5,6.5-6.5h170c3.6,0,6.5,2.9,6.5,6.5l0,0
	C371,278.1,368.1,281,364.5,281z"/>
<path class="st6" d="M296.5,301h-104c-3.6,0-6.5-2.9-6.5-6.5l0,0c0-3.6,2.9-6.5,6.5-6.5h104c3.6,0,6.5,2.9,6.5,6.5l0,0
	C303,298.1,300.1,301,296.5,301z"/>
<path class="st3" d="M419.5,180h-72c-3.6,0-6.5-2.9-6.5-6.5l0,0c0-3.6,2.9-6.5,6.5-6.5h72c3.6,0,6.5,2.9,6.5,6.5l0,0
	C426,177.1,423.1,180,419.5,180z"/>
<polygon class="st7" points="302,204 316,218 313,221 296,204 313,187 316,190 "/>
<polygon class="st7" points="339,204 325,190 328,187 345,204 328,221 325,218 "/>
<text transform="matrix(0.6706 0 0 1 379.3594 300.7578)" class="st8 st9">{     }</text>
<rect x="281" y="334" class="st10" width="54" height="19"/>
<path class="st10" d="M358,364h-99c-3.3,0-6-2.7-6-6l0,0c0-3.3,2.7-6,6-6h99c3.3,0,6,2.7,6,6l0,0C364,361.3,361.3,364,358,364z"/>
</svg>
