<?xml version="1.0" encoding="utf-8"?>
<!-- Generator: Adobe Illustrator 23.0.5, SVG Export Plug-In . SVG Version: 6.00 Build 0)  -->
<svg version="1.1" xmlns="http://www.w3.org/2000/svg" xmlns:xlink="http://www.w3.org/1999/xlink" x="0px" y="0px"
	 viewBox="0 0 800 600" style="enable-background:new 0 0 800 600;" xml:space="preserve">
<style type="text/css">
	.st0{opacity:0.51;fill:#E8E26E;}
	.st1{fill:#BD8675;}
	.st2{fill:url(#SVGID_1_);}
	.st3{fill:url(#SVGID_2_);}
	.st4{fill:#FBB43B;}
	.st5{fill:none;stroke:#FBB43B;stroke-width:4;stroke-miterlimit:10;}
	.st6{fill:url(#SVGID_3_);}
	.st7{fill:url(#SVGID_4_);}
	.st8{fill:#8C6239;}
	.st9{fill:#C1272D;}
	.st10{fill:#999999;}
	.st11{fill:none;stroke:#C69C6D;stroke-width:9;stroke-miterlimit:10;}
	.st12{fill:#F2F2F2;}
	.st13{fill:#C69C6D;}
	.st14{fill:#006837;}
	.st15{fill:url(#SVGID_5_);}
	.st16{fill:url(#SVGID_6_);}
	.st17{fill:url(#SVGID_7_);}
	.st18{fill:#FFFFFF;stroke:#004D32;stroke-width:10;stroke-miterlimit:10;}
	.st19{fill:#ED1C24;}
	.st20{fill:#E6E6E6;}
	.st21{fill:#F15A24;}
	.st22{fill:#CCCCCC;}
	.st23{fill:#B3B3B3;}
	.st24{fill:#1A1A1A;}
	.st25{fill:#39B54A;}
	.st26{fill:#FFFFFF;}
	.st27{fill:#C7B299;}
	.st28{fill:none;stroke:#8C6239;stroke-width:4;stroke-miterlimit:10;}
	.st29{fill:#A67C52;}
</style>
<g id="Layer_6">
	<rect class="st0" width="800" height="457"/>
	<rect y="457" class="st1" width="800" height="143"/>
</g>
<g id="Layer_4">
	<linearGradient id="SVGID_1_" gradientUnits="userSpaceOnUse" x1="620" y1="396" x2="708" y2="396">
		<stop  offset="0" style="stop-color:#BF7500"/>
		<stop  offset="1" style="stop-color:#E99A00"/>
	</linearGradient>
	<path class="st2" d="M705.4,405h-82.7c-1.5,0-2.6-1.2-2.6-2.6v-12.7c0-1.5,1.2-2.6,2.6-2.6h82.7c1.5,0,2.6,1.2,2.6,2.6v12.7
		C708,403.8,706.8,405,705.4,405z"/>
	<linearGradient id="SVGID_2_" gradientUnits="userSpaceOnUse" x1="626" y1="376.5" x2="708" y2="376.5">
		<stop  offset="0" style="stop-color:#E07500"/>
		<stop  offset="0.9841" style="stop-color:#E96300"/>
		<stop  offset="1" style="stop-color:#E99A00"/>
	</linearGradient>
	<path class="st3" d="M705.4,387h-76.7c-1.5,0-2.6-1.2-2.6-2.6v-15.7c0-1.5,1.2-2.6,2.6-2.6h76.7c1.5,0,2.6,1.2,2.6,2.6v15.7
		C708,385.8,706.8,387,705.4,387z"/>
	<g>
		<path class="st4" d="M582.1,412h-30.2c-4.4,0-7.9-3.6-7.9-7.9v-7.2c0-4.4,3.6-7.9,7.9-7.9h30.2c4.4,0,7.9,3.6,7.9,7.9v7.2
			C590,408.4,586.4,412,582.1,412z"/>
		<path class="st4" d="M574.1,395h-15.2c-4.4,0-7.9-3.6-7.9-7.9l0,0c0-4.4,3.6-7.9,7.9-7.9h15.2c4.4,0,7.9,3.6,7.9,7.9l0,0
			C582,391.4,578.4,395,574.1,395z"/>
		<path class="st5" d="M612,293c-27.3,10.6-47,40.8-47,76.5c0,3.3,0.2,6.5,0.5,9.7c0.3,3.4,0.9,6.6,1.5,9.8c0.4,2,0.9,4,1.5,6
			c1.7,6,4,11.7,6.8,17"/>
		<linearGradient id="SVGID_3_" gradientUnits="userSpaceOnUse" x1="608" y1="293" x2="629" y2="293">
			<stop  offset="0" style="stop-color:#FFD62A"/>
			<stop  offset="0" style="stop-color:#E96300"/>
			<stop  offset="1" style="stop-color:#FF9A00"/>
		</linearGradient>
		<ellipse class="st6" cx="618.5" cy="293" rx="10.5" ry="9"/>
		<linearGradient id="SVGID_4_" gradientUnits="userSpaceOnUse" x1="618.834" y1="298.9627" x2="655.45" y2="298.9627">
			<stop  offset="5.291005e-02" style="stop-color:#FF9A00"/>
			<stop  offset="0.9841" style="stop-color:#E96300"/>
			<stop  offset="1" style="stop-color:#FFD62A"/>
		</linearGradient>
		<path class="st7" d="M655.5,285l-17.1,33.9c-1.7-0.5-3.4-1.2-5.1-2c-11.8-6-17.5-18.6-12.6-28.2c4.8-9.6,18.4-12.6,30.2-6.6
			C652.5,282.9,654,283.9,655.5,285z"/>
	</g>
</g>
<g id="Layer_5">
	<rect x="596" y="62" class="st1" width="19" height="68"/>
	<rect x="596" y="72" class="st8" width="19" height="2"/>
	<rect x="596" y="75" class="st8" width="19" height="2"/>
	<rect x="596" y="115" class="st8" width="19" height="2"/>
	<rect x="596" y="118" class="st8" width="19" height="2"/>
	<rect x="643" y="62" class="st9" width="19" height="68"/>
	<rect x="643" y="72" class="st8" width="19" height="2"/>
	<rect x="643" y="75" class="st8" width="19" height="2"/>
	<rect x="643" y="115" class="st8" width="19" height="2"/>
	<rect x="643" y="118" class="st8" width="19" height="2"/>
	<rect x="665" y="62" class="st9" width="16" height="68"/>
	<rect x="665" y="72" class="st8" width="16" height="2"/>
	<rect x="665" y="75" class="st8" width="16" height="2"/>
	<rect x="665" y="115" class="st8" width="16" height="2"/>
	<rect x="665" y="118" class="st8" width="16" height="2"/>
	
		<rect x="620" y="61" transform="matrix(0.9956 9.320932e-02 -9.320932e-02 0.9956 11.5954 -58.2617)" class="st10" width="19" height="68"/>
	
		<rect x="622.1" y="71.1" transform="matrix(0.9956 9.320932e-02 -9.320932e-02 0.9956 9.4702 -58.5612)" class="st8" width="19" height="2"/>
	
		<rect x="621.9" y="74.1" transform="matrix(0.9956 9.320932e-02 -9.320932e-02 0.9956 9.7474 -58.5221)" class="st8" width="19" height="2"/>
	
		<rect x="618.1" y="113.9" transform="matrix(0.9956 9.320932e-02 -9.320932e-02 0.9956 13.4433 -58.0012)" class="st8" width="19" height="2"/>
	
		<rect x="617.9" y="116.9" transform="matrix(0.9956 9.320932e-02 -9.320932e-02 0.9956 13.7205 -57.9622)" class="st8" width="19" height="2"/>
	<rect x="560.5" y="41.5" class="st11" width="134" height="94"/>
</g>
<g id="Layer_3">
	<g>
		<polygon class="st12" points="171,347 171,359.5 159.1,404 117.8,404 106,360.1 106,347 		"/>
		<path class="st13" d="M139,347c-1.5-0.3,5.9-17.8-1-37c-1.8-5.1-7.4-17.9-10-24c-0.6-1.4-3.2-7.3-3-15c0.1-2.7,0.5-6,1-6
			c0.7,0,0.8,5.8,3,14c1.4,5.3,3,9.2,5,14c2.7,6.4,3.4,7,5,11c1.7,4.2,5.3,13.1,5,24C143.7,338.2,140.1,347.2,139,347z"/>
		<path class="st14" d="M123,290c2.6,4.6,5.9,6.8,8,6c1.2-0.5,1.8-1.9,2-3c0.6-4-4.8-7.8-9-9c-1-0.3-3.3-0.9-4,0
			C119,285.4,122.6,289.5,123,290z"/>
		<path class="st14" d="M152.9,324.7c-2.6-4.6-5.9-6.8-8-6c-1.2,0.5-1.8,1.9-2,3c-0.6,4,4.8,7.8,9,9c1,0.3,3.3,0.9,4,0
			C156.9,329.3,153.3,325.2,152.9,324.7z"/>
		<path class="st14" d="M140,301c-1.2,1.5,2.7,4.5,2,9c-0.3,2.1-1.4,2.6-1,4c0.6,2.1,3.8,3.7,6,3c3.1-1,4.2-6.3,3-10
			c-0.9-2.9-3.4-5.2-6-6C143.3,300.8,140.8,300,140,301z"/>
		<g>
			<linearGradient id="SVGID_5_" gradientUnits="userSpaceOnUse" x1="117.1561" y1="300.9731" x2="137.1025" y2="300.9731">
				<stop  offset="0" style="stop-color:#AA0034"/>
				<stop  offset="1" style="stop-color:#D4145A"/>
			</linearGradient>
			<path class="st15" d="M133.9,301.5c-2.6,2.5-3.9,3.7-5.6,4.7c-2.1,1.2-3.7,2.1-5.9,1.8c-1.8-0.2-4.1-1.3-4.9-3.3
				c-1.4-3.2,1.7-7.5,4.9-9.3c5.8-3.5,14.5-0.1,14.8,2.4C137.2,298.4,136.1,299.4,133.9,301.5z"/>
			<linearGradient id="SVGID_6_" gradientUnits="userSpaceOnUse" x1="135.4605" y1="287.9195" x2="148" y2="287.9195">
				<stop  offset="0" style="stop-color:#AA0034"/>
				<stop  offset="1" style="stop-color:#D4145A"/>
			</linearGradient>
			<path class="st16" d="M135.7,292.7c-0.2-3.5-0.4-5.3,0-7.3c0.4-2.3,0.8-4.2,2.4-5.7c1.3-1.2,3.6-2.2,5.7-1.6
				c3.4,1,4.6,6.1,4.1,9.7c-1.1,6.7-9.2,11.1-11.4,9.7C136,297.3,135.9,295.7,135.7,292.7z"/>
			<linearGradient id="SVGID_7_" gradientUnits="userSpaceOnUse" x1="133.6122" y1="306.6724" x2="147.5263" y2="306.6724">
				<stop  offset="0" style="stop-color:#AA0034"/>
				<stop  offset="1" style="stop-color:#D4145A"/>
			</linearGradient>
			<path class="st17" d="M141.7,300c2.3,2.7,3.5,4.1,4.3,5.9c1,2.1,1.8,3.8,1.4,6c-0.4,1.7-1.6,3.9-3.6,4.6c-3.3,1.1-7.4-2.2-9-5.4
				c-3.1-6,0.8-14.4,3.4-14.5C138.7,296.6,139.7,297.7,141.7,300z"/>
		</g>
	</g>
</g>
<g id="Layer_2">
	<path class="st18" d="M505,369H300c-6.6,0-12-5.4-12-12V222c0-6.6,5.4-12,12-12h205c6.6,0,12,5.4,12,12v135
		C517,363.6,511.6,369,505,369z"/>
	<path class="st19" d="M489,241h-92c-3.3,0-6-2.7-6-6l0,0c0-3.3,2.7-6,6-6h92c3.3,0,6,2.7,6,6l0,0C495,238.3,492.3,241,489,241z"/>
	<path class="st20" d="M376,305h-66c-3.3,0-6-2.7-6-6v-64c0-3.3,2.7-6,6-6h66c3.3,0,6,2.7,6,6v64C382,302.3,379.3,305,376,305z"/>
	<path class="st21" d="M489,258h-33c-3.3,0-6-2.7-6-6l0,0c0-3.3,2.7-6,6-6h33c3.3,0,6,2.7,6,6l0,0C495,255.3,492.3,258,489,258z"/>
	<path class="st22" d="M438,258h-41c-3.3,0-6-2.7-6-6l0,0c0-3.3,2.7-6,6-6h41c3.3,0,6,2.7,6,6l0,0C444,255.3,441.3,258,438,258z"/>
	<path class="st23" d="M353,346h-41c-3.3,0-6-2.7-6-6l0,0c0-3.3,2.7-6,6-6h41c3.3,0,6,2.7,6,6l0,0C359,343.3,356.3,346,353,346z"/>
	<path class="st22" d="M489,275h-92c-3.3,0-6-2.7-6-6l0,0c0-3.3,2.7-6,6-6h92c3.3,0,6,2.7,6,6l0,0C495,272.3,492.3,275,489,275z"/>
	<path class="st23" d="M404,329h-92c-3.3,0-6-2.7-6-6l0,0c0-3.3,2.7-6,6-6h92c3.3,0,6,2.7,6,6l0,0C410,326.3,407.3,329,404,329z"/>
	<path class="st24" d="M420.7,411h-36.3c-5.1,0-9.3-4.2-9.3-9.3v-18.3c0-5.1,4.2-9.3,9.3-9.3h36.3c5.1,0,9.3,4.2,9.3,9.3v18.3
		C430,406.8,425.8,411,420.7,411z"/>
	<g>
		<rect x="77" y="405" class="st13" width="657" height="23"/>
	</g>
</g>
<g id="Layer_1">
	<g>
		<circle class="st12" cx="398" cy="115" r="44"/>
		<path class="st25" d="M398,73c23.2,0,42,18.8,42,42s-18.8,42-42,42s-42-18.8-42-42S374.8,73,398,73 M398,69c-25.4,0-46,20.6-46,46
			s20.6,46,46,46s46-20.6,46-46S423.4,69,398,69L398,69z"/>
	</g>
	<g>
		<path class="st26" d="M397.1,78c-0.1,0-0.1-0.1-0.1-0.1v-5.8c0-0.1,0.1-0.1,0.1-0.1h0.8c0.1,0,0.1,0.1,0.1,0.1v5.8
			c0,0.1-0.1,0.1-0.1,0.1H397.1z"/>
		<path class="st25" d="M397.9,70h-0.8c-1.2,0-2.1,1-2.1,2.1v5.8c0,1.2,1,2.1,2.1,2.1h0.8c1.2,0,2.1-1,2.1-2.1v-5.8
			C400,71,399,70,397.9,70L397.9,70z"/>
	</g>
	<g>
		<path class="st26" d="M397.1,158c-0.1,0-0.1-0.1-0.1-0.1v-5.8c0-0.1,0.1-0.1,0.1-0.1h0.8c0.1,0,0.1,0.1,0.1,0.1v5.8
			c0,0.1-0.1,0.1-0.1,0.1H397.1z"/>
		<path class="st25" d="M397.9,150h-0.8c-1.2,0-2.1,1-2.1,2.1v5.8c0,1.2,1,2.1,2.1,2.1h0.8c1.2,0,2.1-1,2.1-2.1v-5.8
			C400,151,399,150,397.9,150L397.9,150z"/>
	</g>
	<g>
		<path class="st26" d="M435.1,116c-0.1,0-0.1-0.1-0.1-0.1v-0.8c0-0.1,0.1-0.1,0.1-0.1h5.8c0.1,0,0.1,0.1,0.1,0.1v0.8
			c0,0.1-0.1,0.1-0.1,0.1H435.1z"/>
		<path class="st25" d="M440.9,113h-5.8c-1.2,0-2.1,1-2.1,2.1v0.8c0,1.2,1,2.1,2.1,2.1h5.8c1.2,0,2.1-1,2.1-2.1v-0.8
			C443,114,442,113,440.9,113L440.9,113z"/>
	</g>
	<g>
		<path class="st26" d="M355.1,114c-0.1,0-0.1-0.1-0.1-0.1v-0.8c0-0.1,0.1-0.1,0.1-0.1h5.8c0.1,0,0.1,0.1,0.1,0.1v0.8
			c0,0.1-0.1,0.1-0.1,0.1H355.1z"/>
		<path class="st25" d="M360.9,111h-5.8c-1.2,0-2.1,1-2.1,2.1v0.8c0,1.2,1,2.1,2.1,2.1h5.8c1.2,0,2.1-1,2.1-2.1v-0.8
			C363,112,362,111,360.9,111L360.9,111z"/>
	</g>
	<g>
		<path class="st26" d="M396.9,114.4l1.5,2.7c0.1,0.2,0.3,0.2,0.5,0.1l23.6-13.6c0.2-0.1,0.2-0.3,0.1-0.5l-1.5-2.7
			c-0.1-0.2-0.3-0.2-0.5-0.1L397,113.9C396.9,114,396.8,114.2,396.9,114.4z"/>
		<path class="st25" d="M420.8,100.3c-0.1,0-0.1,0-0.2,0L397,113.9c-0.2,0.1-0.2,0.3-0.1,0.5l1.5,2.7c0.1,0.1,0.2,0.2,0.3,0.2
			c0.1,0,0.1,0,0.2,0l23.6-13.6c0.2-0.1,0.2-0.3,0.1-0.5l-1.5-2.7C421,100.3,420.9,100.3,420.8,100.3L420.8,100.3z"/>
	</g>
	<g>
		<polygon class="st26" points="396.2,112.8 375.7,92.2 396.3,112.8 		"/>
		<path class="st25" d="M375.7,90.2c-0.5,0-1,0.2-1.4,0.6v0c-0.8,0.8-0.8,2.1,0,2.8l20.5,20.5c0.4,0.4,0.9,0.6,1.4,0.6
			c0.5,0,1-0.2,1.4-0.6c0.8-0.8,0.8-2.1,0-2.8l-20.5-20.5C376.8,90.4,376.3,90.2,375.7,90.2L375.7,90.2z"/>
	</g>
	<g>
		<circle class="st26" cx="398.5" cy="114.5" r="1.5"/>
		<path class="st25" d="M398.5,111c-1.9,0-3.5,1.6-3.5,3.5s1.6,3.5,3.5,3.5s3.5-1.6,3.5-3.5S400.4,111,398.5,111L398.5,111z"/>
	</g>
	<rect x="79" y="429" class="st27" width="154" height="73"/>
	<rect x="79" y="503" class="st27" width="154" height="73"/>
	<path class="st28" d="M215.3,491.5H96.2c-3.9,0-7.2-3.2-7.2-7.2v-37.1c0-3.9,3.2-7.2,7.2-7.2h119.1c3.9,0,7.2,3.2,7.2,7.2v37.1
		C222.5,488.3,219.3,491.5,215.3,491.5z"/>
	<path class="st28" d="M215.3,565.5H96.2c-3.9,0-7.2-3.2-7.2-7.2v-37.1c0-3.9,3.2-7.2,7.2-7.2h119.1c3.9,0,7.2,3.2,7.2,7.2v37.1
		C222.5,562.3,219.3,565.5,215.3,565.5z"/>
	<path class="st20" d="M168,469h-24c-1.6,0-3-1.4-3-3l0,0c0-1.6,1.4-3,3-3h24c1.6,0,3,1.4,3,3l0,0C171,467.6,169.6,469,168,469z"/>
	<path class="st20" d="M168,543h-24c-1.6,0-3-1.3-3-3l0,0c0-1.7,1.4-3,3-3h24c1.6,0,3,1.3,3,3l0,0C171,541.7,169.6,543,168,543z"/>
	<rect x="79" y="577" class="st27" width="154" height="73"/>
	<path class="st28" d="M215.3,639.5H96.2c-3.9,0-7.2-3.2-7.2-7.2v-37.1c0-3.9,3.2-7.2,7.2-7.2h119.1c3.9,0,7.2,3.2,7.2,7.2v37.1
		C222.5,636.3,219.3,639.5,215.3,639.5z"/>
	<path class="st20" d="M168,617h-24c-1.6,0-3-1.3-3-3l0,0c0-1.7,1.4-3,3-3h24c1.6,0,3,1.3,3,3l0,0C171,615.7,169.6,617,168,617z"/>
	<g>
		<rect x="689" y="417" class="st13" width="40" height="183"/>
	</g>
	<g>
		<rect x="673" y="428" class="st29" width="16" height="172"/>
	</g>
</g>
</svg>
